<svg id="Layer_1" data-name="Layer 1" xmlns="http://www.w3.org/2000/svg" viewBox="0 0 257.26 69.58"><path d="M125.77,126.78a24.24,24.24,0,0,1-11-2.38,18.28,18.28,0,0,1-7.47-6.58,17.54,17.54,0,0,1-2.68-9.64V75.33a2.69,2.69,0,0,1,4.55-1.9,2.59,2.59,0,0,1,.74,1.9v32.85a12.56,12.56,0,0,0,2,7.06,13.5,13.5,0,0,0,5.6,4.78,18.58,18.58,0,0,0,8.21,1.73,18.07,18.07,0,0,0,8.08-1.73,13.67,13.67,0,0,0,5.53-4.78,12.63,12.63,0,0,0,2-7.06V75.33a2.71,2.71,0,0,1,4.58-1.9,2.61,2.61,0,0,1,.72,1.9v32.85a17.55,17.55,0,0,1-2.69,9.64,18.31,18.31,0,0,1-7.39,6.58A23.71,23.71,0,0,1,125.77,126.78Z" transform="translate(-104.66 -72)"/><path d="M162.22,141.58a2.47,2.47,0,0,1-2.65-2.65v-32a19,19,0,0,1,2.55-9.54,18.1,18.1,0,0,1,6.72-6.68,18.73,18.73,0,0,1,9.53-2.45,19,19,0,0,1,9.71,2.48,18.22,18.22,0,0,1,6.75,6.75,19,19,0,0,1,2.48,9.71,19.24,19.24,0,0,1-2.41,9.64,18,18,0,0,1-6.55,6.75A17.8,17.8,0,0,1,179,126a17.49,17.49,0,0,1-8.25-1.93A16.32,16.32,0,0,1,164.8,119v20a2.62,2.62,0,0,1-.71,1.93A2.52,2.52,0,0,1,162.22,141.58Zm16.15-20.3a13.68,13.68,0,0,0,7.06-1.83,13.15,13.15,0,0,0,4.92-5.06,15.48,15.48,0,0,0,0-14.49,13.88,13.88,0,0,0-19-5.06,13.25,13.25,0,0,0-4.88,5.06,15.71,15.71,0,0,0,0,14.49,12.91,12.91,0,0,0,4.88,5.06A13.56,13.56,0,0,0,178.37,121.28Z" transform="translate(-104.66 -72)"/><path d="M244.42,126.37a24.73,24.73,0,0,1-8-1.26,19.26,19.26,0,0,1-6.42-3.56,15.68,15.68,0,0,1-4.14-5.36,2,2,0,0,1,0-2,2.69,2.69,0,0,1,1.73-1.26,2.48,2.48,0,0,1,1.86.2,3.23,3.23,0,0,1,1.4,1.43,10.84,10.84,0,0,0,3,3.53,14.44,14.44,0,0,0,4.69,2.41,19.8,19.8,0,0,0,6,.85,16.17,16.17,0,0,0,6.38-1.19,10.1,10.1,0,0,0,4.38-3.46,9.42,9.42,0,0,0,1.59-5.53,9.65,9.65,0,0,0-3-7.13q-3.06-3-9.57-3.8-8-1-12.42-4.92a12.52,12.52,0,0,1-4.48-9.74,12,12,0,0,1,2.2-7.2,14.21,14.21,0,0,1,6.08-4.72A22.31,22.31,0,0,1,244.42,72a18.45,18.45,0,0,1,12.12,4.31,18.05,18.05,0,0,1,3.69,4.24,2.75,2.75,0,0,1,.45,2.11,2.37,2.37,0,0,1-1.19,1.56,2.85,2.85,0,0,1-3.67-1.16,15.38,15.38,0,0,0-2.54-3,11.22,11.22,0,0,0-3.7-2.2,15.88,15.88,0,0,0-5.23-.89,14.75,14.75,0,0,0-8.62,2.28,7.56,7.56,0,0,0-3.26,6.62,7.84,7.84,0,0,0,1.22,4.24,9.62,9.62,0,0,0,4,3.32,25.42,25.42,0,0,0,7.57,2.07q8.49,1.23,12.59,5.2A13.72,13.72,0,0,1,262,111.1a15.32,15.32,0,0,1-1.32,6.51,13.15,13.15,0,0,1-3.74,4.79,17.07,17.07,0,0,1-5.63,2.95A22.74,22.74,0,0,1,244.42,126.37Z" transform="translate(-104.66 -72)"/><path d="M275,125.69a2.45,2.45,0,0,1-2.58-2.58V75.26A2.45,2.45,0,0,1,275,72.68a2.56,2.56,0,0,1,1.87.71,2.52,2.52,0,0,1,.71,1.87v47.85a2.52,2.52,0,0,1-.71,1.87A2.56,2.56,0,0,1,275,125.69Zm1.7-12.42-3.19-3.46,23.21-21a2.41,2.41,0,0,1,1.7-.71,2.7,2.7,0,0,1,2.34,2.58,2.15,2.15,0,0,1-.84,1.6Zm23.42,12.08a2.38,2.38,0,0,1-1.83.65,2.33,2.33,0,0,1-1.63-1l-15.14-18.6,3.67-3.25L300.42,122a2.25,2.25,0,0,1-.34,3.39Z" transform="translate(-104.66 -72)"/><path d="M314.88,81.5a3.52,3.52,0,0,1-2.58-1.08,3.6,3.6,0,0,1-1.09-2.65,3.37,3.37,0,0,1,1.12-2.68,3.83,3.83,0,0,1,2.61-1,3.76,3.76,0,0,1,2.55,1,3.37,3.37,0,0,1,1.12,2.68,3.7,3.7,0,0,1-3.73,3.73Zm.06,44.19A2.45,2.45,0,0,1,312.3,123V91.21a2.45,2.45,0,0,1,2.64-2.65,2.56,2.56,0,0,1,1.87.71,2.62,2.62,0,0,1,.71,1.94V123a2.61,2.61,0,0,1-.71,1.94A2.56,2.56,0,0,1,314.94,125.69Z" transform="translate(-104.66 -72)"/><path d="M338.84,125.69A8.34,8.34,0,0,1,334,124.2a9.88,9.88,0,0,1-3.32-4.14,14.67,14.67,0,0,1-1.19-6.11V75.26a2.58,2.58,0,1,1,5.16,0V114a8.51,8.51,0,0,0,1.19,4.75,3.5,3.5,0,0,0,3,1.83h1.69a2,2,0,0,1,1.63.72,2.73,2.73,0,0,1,.61,1.86,2.32,2.32,0,0,1-.85,1.87,3.32,3.32,0,0,1-2.2.71Z" transform="translate(-104.66 -72)"/><path d="M358,125.69a8.34,8.34,0,0,1-4.86-1.49,9.88,9.88,0,0,1-3.32-4.14,14.83,14.83,0,0,1-1.19-6.11V75.26a2.58,2.58,0,1,1,5.16,0V114A8.51,8.51,0,0,0,355,118.7a3.51,3.51,0,0,0,3,1.83h1.69a2,2,0,0,1,1.63.72,2.73,2.73,0,0,1,.61,1.86,2.34,2.34,0,0,1-.84,1.87,3.37,3.37,0,0,1-2.21.71Z" transform="translate(-104.66 -72)"/></svg>