<?xml version="1.0" encoding="utf-8"?>
<!-- Generator: Adobe Illustrator 24.2.3, SVG Export Plug-In . SVG Version: 6.00 Build 0)  -->
<svg version="1.1" id="Layer_1" xmlns="http://www.w3.org/2000/svg" xmlns:xlink="http://www.w3.org/1999/xlink" x="0px" y="0px"
	 viewBox="0 0 280 227" style="enable-background:new 0 0 280 227;" xml:space="preserve">
<style type="text/css">
	.st0{fill:#F58733;}
	.st1{fill:#852121;}
	.st2{fill:#FFFFFF;}
</style>
<path class="st0" d="M180.24,88.56h-0.06c0-0.68,0-1.37-0.03-2.06C180.18,87.15,180.21,87.85,180.24,88.56z"/>
<path class="st1" d="M138.92,26.02c-3.72-0.92-7.54-1.38-11.37-1.38c-24.12,0-44.03,18.03-46.98,41.36H28.6
	c14.76-27.81,44.02-46.75,77.7-46.75c3.2,0,6.4,0.17,9.58,0.52c0.12,0.01,0.23,0.03,0.36,0.04
	C122.33,20.57,130.53,22.26,138.92,26.02z"/>
<polygon class="st2" points="28.79,73.61 28.79,76.86 35.22,76.86 35.22,91.37 39.65,91.37 39.65,76.86 46.08,76.86 46.08,73.61 "/>
<polygon class="st2" points="65.93,73.61 65.93,91.37 61.51,91.37 61.51,84.19 52.66,84.19 52.66,91.37 48.23,91.37 48.23,73.61 
	52.66,73.61 52.66,80.74 61.51,80.74 61.51,73.61 "/>
<path class="st2" d="M83.17,91.37H69.24V73.61h10.97c0,0.4-0.02,0.8-0.02,1.21c0,0.69,0.01,1.37,0.04,2.05h-6.56v3.73h6.88
	c0.13,1.1,0.3,2.18,0.51,3.25h-7.39v4.28h8.42C82.41,89.22,82.77,90.31,83.17,91.37z"/>
<polygon class="st2" points="47.9,99.15 47.9,114.41 34.57,99.15 28.86,99.15 28.86,124.12 35.09,124.12 35.09,108.12 48.87,124.12 
	54.13,124.12 54.13,99.15 "/>
<path class="st2" d="M72.99,119.26c2.36,0,4.26-0.7,5.7-2.1c1.44-1.4,2.16-3.24,2.16-5.52c0-2.29-0.72-4.13-2.16-5.52
	c-1.44-1.4-3.34-2.09-5.7-2.09c-2.37,0-4.28,0.7-5.73,2.09c-1.45,1.39-2.17,3.24-2.17,5.52c0,2.28,0.72,4.12,2.17,5.52
	C68.7,118.56,70.61,119.26,72.99,119.26 M72.99,98.82c4.26,0,7.7,1.28,10.33,3.85c2.63,2.57,3.95,5.56,3.95,8.97
	c0,3.46-1.34,6.45-4.01,8.99c-2.67,2.54-6.1,3.81-10.28,3.81c-4.23,0-7.67-1.26-10.33-3.79c-2.66-2.53-3.99-5.53-3.99-9.02
	c0-3.42,1.32-6.41,3.96-8.98S68.72,98.82,72.99,98.82"/>
<path class="st2" d="M98,103.72v5.68h3.29c1.05,0,1.88-0.25,2.49-0.74c0.61-0.49,0.92-1.2,0.92-2.12c0-1.88-1.19-2.82-3.56-2.82
	L98,103.72z M91.78,99.15h11.16c2.42,0,4.38,0.7,5.9,2.1c1.46,1.28,2.28,3.14,2.26,5.08c0,2.75-1.43,4.79-4.28,6.11
	c1.25,0.57,2.44,2.11,3.57,4.61s2.22,4.86,3.27,7.08h-6.83c-0.41-0.82-1.12-2.39-2.13-4.7c-1.01-2.31-1.88-3.8-2.6-4.46
	c-0.62-0.61-1.45-0.97-2.31-0.98H98v10.14h-6.22V99.15z"/>
<polygon class="st2" points="137.86,99.15 137.86,103.72 128.81,103.72 128.81,124.12 122.59,124.12 122.59,103.72 113.54,103.72 
	113.54,99.15 "/>
<polygon class="st2" points="167.05,99.15 167.05,124.12 160.82,124.12 160.82,114.02 148.38,114.02 148.38,124.12 142.16,124.12 
	142.16,99.15 148.38,99.15 148.38,109.17 160.82,109.17 160.82,99.15 "/>
<path class="st2" d="M194.8,116.5v5.45c-3.02,1.63-6.39,2.48-9.81,2.48c-4.43,0-7.97-1.22-10.59-3.67
	c-2.63-2.45-3.94-5.47-3.94-9.06c0-3.59,1.39-6.63,4.16-9.13s6.39-3.75,10.87-3.74c3.56,0,6.58,0.73,9.05,2.2v5.56
	c-3.03-1.7-5.9-2.56-8.6-2.56c-2.66,0-4.83,0.71-6.52,2.14c-1.64,1.33-2.57,3.34-2.53,5.44c-0.05,2.11,0.87,4.13,2.49,5.49
	c1.66,1.44,3.79,2.16,6.39,2.16c1.26,0,2.51-0.17,3.72-0.51c1.19-0.34,2.97-1.09,5.33-2.25"/>
<path class="st2" d="M215.35,114.82l-4.06-9.71l-3.67,9.71H215.35z M214.82,99.15l11.09,24.97h-6.69l-2.06-4.93h-11.18l-1.86,4.93
	h-6.6l10.09-24.97H214.82z"/>
<path class="st2" d="M235.74,103.72v5.79h2.9c2.59,0,3.88-0.97,3.88-2.9c0-1.08-0.35-1.84-1.04-2.25c-0.69-0.42-1.87-0.63-3.54-0.64
	L235.74,103.72z M229.52,99.15h11.14c2.53,0,4.54,0.73,6.03,2.2c1.49,1.47,2.23,3.2,2.23,5.2c0.03,2-0.77,3.93-2.21,5.33
	c-1.47,1.48-3.48,2.22-6.02,2.22h-4.96v10.03h-6.22L229.52,99.15z"/>
<path class="st2" d="M47.35,131.89h6.22v14.18c0,3.65-1.08,6.41-3.24,8.29c-2.16,1.88-5.24,2.83-9.24,2.83
	c-3.96,0-7.03-0.95-9.22-2.86c-2.19-1.91-3.28-4.65-3.28-8.22v-14.21h6.24v14.36c0,1.74,0.57,3.13,1.71,4.18
	c1.14,1.05,2.63,1.57,4.48,1.58c1.92,0,3.45-0.54,4.6-1.61c1.15-1.07,1.73-2.6,1.73-4.58V131.89z"/>
<polygon class="st2" points="83.31,131.89 83.31,156.86 78.06,156.86 64.27,140.86 64.27,156.86 58.05,156.86 58.05,131.89 
	63.76,131.89 77.09,147.16 77.09,131.89 "/>
<rect x="88.19" y="131.89" class="st2" width="6.22" height="24.97"/>
<polygon class="st2" points="122.76,131.89 111.22,157.19 108.52,157.19 96.42,131.89 103.2,131.89 109.8,146.16 116.06,131.89 "/>
<polygon class="st2" points="143.08,152.29 143.08,156.86 124.66,156.86 124.66,131.89 142.83,131.89 142.83,136.47 130.88,136.47 
	130.88,141.7 142.27,141.7 142.27,146.28 130.88,146.28 130.88,152.29 "/>
<path class="st2" d="M153.58,136.47v5.68h3.29c1.05,0,1.88-0.25,2.49-0.74c0.61-0.49,0.92-1.2,0.92-2.12c0-1.88-1.19-2.82-3.56-2.82
	L153.58,136.47z M147.35,131.89h11.16c2.42,0,4.39,0.7,5.9,2.1c1.46,1.28,2.29,3.14,2.27,5.09c0,2.75-1.43,4.79-4.28,6.11
	c1.25,0.57,2.44,2.11,3.57,4.61c1.13,2.5,2.22,4.86,3.28,7.06h-6.84c-0.41-0.82-1.12-2.39-2.13-4.7c-1.01-2.31-1.88-3.8-2.6-4.45
	c-0.62-0.61-1.45-0.96-2.31-0.98h-1.79v10.14h-6.22V131.89z"/>
<path class="st2" d="M188.6,133.5v4.88c-3.31-1.48-5.95-2.23-7.92-2.23c-1.13,0-2.01,0.19-2.67,0.56s-0.99,0.87-0.99,1.49
	c0,0.48,0.24,0.93,0.71,1.35c0.48,0.42,1.64,0.98,3.49,1.66c1.52,0.54,3,1.17,4.43,1.89c1.13,0.6,2.11,1.45,2.87,2.48
	c0.81,1.05,1.21,2.39,1.21,4.02c0,2.31-0.88,4.15-2.64,5.52c-1.76,1.37-4.07,2.06-6.94,2.06c-3.16-0.01-6.27-0.85-9.02-2.41v-5.39
	c1.39,0.97,2.87,1.79,4.43,2.45c1.31,0.51,2.7,0.77,4.1,0.76c2.44,0,3.67-0.77,3.67-2.31c0-0.52-0.25-1.02-0.73-1.48
	c-0.49-0.46-1.67-1.03-3.53-1.7c-1.52-0.52-3-1.14-4.43-1.86c-1.11-0.59-2.08-1.43-2.82-2.45c-0.79-1.06-1.19-2.42-1.19-4.08
	c0-2.15,0.86-3.88,2.59-5.2c1.73-1.32,4.04-1.98,6.94-1.98C182.82,131.56,185.64,132.2,188.6,133.5"/>
<rect x="193.03" y="131.89" class="st2" width="6.22" height="24.97"/>
<polygon class="st2" points="227.08,131.89 227.08,136.46 218.03,136.46 218.03,156.86 211.81,156.86 211.81,136.46 202.76,136.46 
	202.76,131.89 "/>
<polygon class="st2" points="237.93,156.86 237.93,145.21 228.08,131.89 235.62,131.89 241.04,139.74 246.48,131.89 254,131.89 
	244.15,145.22 244.15,156.86 "/>
<rect x="28.6" y="168.28" class="st2" width="222.96" height="0.66"/>
<path class="st2" d="M37.92,200.74l5.43,14.73h-3.93l-0.73-2.36h-5.42l-0.73,2.36h-3.92l5.47-14.73L37.92,200.74z M35.94,204.25
	c-0.19,0.75-0.4,1.52-0.6,2.28c-0.31,1.1-0.88,2.84-1.21,3.94h3.73L35.94,204.25z"/>
<path class="st2" d="M47.3,205.71c0.71-0.61,1.48-1.09,3.16-1.25v2.84l-1.06,0.17c-1.54,0.27-2,0.5-2,1.88v6.14h-3.23v-10.92h3.14
	V205.71z"/>
<path class="st2" d="M51.56,200.72h3.17v2.48h-3.17V200.72z M51.56,204.55h3.17v10.92h-3.17V204.55z"/>
<polygon class="st2" points="56.69,204.58 66.02,204.58 66.02,207.05 60.22,212.97 66.02,212.97 66.02,215.48 56.07,215.48 
	56.07,213.06 61.95,207.05 56.69,207.05 "/>
<path class="st2" d="M78.31,210.01c0,2.75-1.58,5.78-5.84,5.78c-3.07,0-5.86-1.75-5.86-5.78c0-3.34,2.11-5.99,6.28-5.76
	C77.34,204.5,78.32,208.03,78.31,210.01 M70.39,207.86c-0.38,0.64-0.57,1.38-0.54,2.13c0,1.73,0.84,3.25,2.63,3.25
	c1.73,0,2.59-1.4,2.59-3.11c0-1.21-0.3-2.15-0.9-2.73c-0.51-0.47-1.19-0.69-1.88-0.61C71.37,206.86,70.82,207.17,70.39,207.86"/>
<path class="st2" d="M82.64,205.57c0.29-0.36,0.66-0.66,1.08-0.86c0.63-0.26,1.3-0.39,1.98-0.4c0.67-0.01,1.34,0.14,1.94,0.45
	c1.15,0.6,1.44,1.58,1.44,3.28v7.45h-3.19v-6.14c0-0.98-0.02-1.34-0.15-1.63c-0.25-0.58-0.81-0.83-1.44-0.83
	c-1.69,0-1.69,1.35-1.69,2.7v5.89H79.4v-10.88h3.24V205.57z"/>
<path class="st2" d="M90.67,207.67c0.06-0.75,0.17-1.65,1.15-2.42c0.98-0.77,2.3-0.96,3.57-0.96c1.33,0,4.57,0.31,4.57,3.13v6.35
	c0,1.17,0.07,1.33,0.32,1.71h-3.16v-1c-0.81,0.6-1.73,1.29-3.34,1.29c-2.5,0-3.57-1.8-3.57-3.32c0-1.75,1.4-2.76,2.29-3.13
	c0.9-0.38,2.94-0.75,4.3-1v-0.58c-0.04-0.5-0.08-1.34-1.23-1.34c-1.42,0-1.61,0.88-1.69,1.27H90.67z M94.74,210.95
	c-0.54,0.21-1.38,0.52-1.38,1.35c0.03,0.64,0.57,1.13,1.21,1.1c0.39-0.01,0.78-0.13,1.1-0.35c1.07-0.68,1.11-1.67,1.13-2.8
	L94.74,210.95z"/>
<path class="st2" d="M107.08,211.05c0.39,0.47,0.87,0.86,1.42,1.15c0.87,0.47,1.85,0.71,2.84,0.71c1.46,0,2.7-0.69,2.7-1.71
	c0-1.17-1.48-1.35-2.57-1.5c-0.81-0.1-1.63-0.21-2.42-0.38c-0.9-0.19-3.96-0.83-3.96-4.01c0-3.8,3.38-4.93,5.93-4.93
	c3.4,0,5.24,1.65,6.51,2.8l-2.7,1.94c-0.43-0.46-0.92-0.86-1.46-1.19c-0.74-0.4-1.56-0.63-2.4-0.65c-1.46,0-2.19,0.84-2.19,1.55
	c0,1.13,1.25,1.29,1.88,1.38c1.58,0.19,3.67,0.58,4.51,0.88c1.69,0.63,2.55,1.94,2.55,3.61c-0.01,1.15-0.42,2.26-1.17,3.13
	c-1.33,1.55-3.47,1.98-5.53,1.98c-4.15,0-5.8-1.92-6.72-2.98L107.08,211.05z"/>
<path class="st2" d="M119.29,201.43h3.19v3.4h2.11v1.96h-2.13v4.91c-0.02,0.68-0.02,1.23,0.84,1.23l1.15-0.04v2.51
	c-0.56,0.1-1.12,0.16-1.69,0.17c-1.11,0-2.32-0.06-3-1.06c-0.44-0.65-0.45-1.42-0.45-2.46v-5.26h-1.58v-1.96h1.58L119.29,201.43z"/>
<path class="st2" d="M125.57,207.67c0.06-0.75,0.16-1.65,1.15-2.42c0.98-0.77,2.3-0.96,3.57-0.96c1.33,0,4.57,0.31,4.57,3.13v6.35
	c0,1.17,0.06,1.33,0.31,1.71h-3.16v-1c-0.81,0.6-1.73,1.29-3.34,1.29c-2.5,0-3.57-1.8-3.57-3.32c0-1.75,1.4-2.76,2.3-3.13
	c0.9-0.38,2.94-0.75,4.3-1v-0.58c-0.04-0.5-0.09-1.34-1.23-1.34c-1.42,0-1.61,0.88-1.69,1.27H125.57z M129.63,210.95
	c-0.54,0.21-1.37,0.52-1.37,1.35c0.03,0.64,0.57,1.13,1.21,1.1c0.39-0.01,0.78-0.13,1.11-0.35c1.06-0.68,1.11-1.67,1.13-2.8
	L129.63,210.95z"/>
<path class="st2" d="M137.09,201.43h3.19v3.4h2.11v1.96h-2.13v4.91c-0.02,0.68-0.02,1.23,0.84,1.23l1.15-0.04v2.51
	c-0.56,0.1-1.12,0.16-1.69,0.17c-1.11,0-2.32-0.06-3-1.06c-0.44-0.65-0.45-1.42-0.45-2.46v-5.26h-1.58v-1.96h1.58L137.09,201.43z"/>
<path class="st2" d="M153.75,212.7c-0.37,0.6-0.81,1.14-1.31,1.63c-1.13,1.02-2.59,1.57-4.11,1.54c-3.24,0-5.51-2.06-5.51-5.64
	c0-2.63,1.29-6.01,5.59-6.01c0.64,0,2.52,0.06,3.92,1.58c1.4,1.51,1.5,3.65,1.54,4.88h-7.79c-0.02,1.35,0.75,2.7,2.48,2.7
	c1.73,0,2.36-1.15,2.75-1.92L153.75,212.7z M150.56,208.67c-0.06-0.45-0.15-1.06-0.61-1.54c-0.42-0.4-0.98-0.61-1.56-0.61
	c-0.62,0-1.21,0.26-1.63,0.71c-0.35,0.41-0.57,0.91-0.65,1.44H150.56z"/>
<path class="st2" d="M171.67,200.74v8.22c-0.02,1.42-0.04,2.84-0.86,4.17c-1.58,2.55-4.86,2.67-5.49,2.67
	c-1.19,0-2.36-0.27-3.42-0.79c-2.84-1.46-2.84-4.06-2.82-6.05v-8.22h3.72v9.18c0,0.75,0.02,1.38,0.27,1.84c0.45,0.77,1.46,1,2.38,1
	c2.51,0,2.51-1.71,2.53-2.86v-9.16H171.67z"/>
<path class="st2" d="M176.58,205.57c0.29-0.36,0.66-0.66,1.08-0.86c0.63-0.26,1.3-0.39,1.98-0.4c0.67-0.01,1.34,0.14,1.94,0.45
	c1.15,0.6,1.44,1.58,1.44,3.28v7.45h-3.18v-6.14c0-0.98-0.02-1.33-0.15-1.63c-0.25-0.59-0.81-0.84-1.44-0.84
	c-1.69,0-1.69,1.35-1.69,2.7v5.89h-3.22v-10.88h3.23L176.58,205.57z"/>
<path class="st2" d="M184.7,200.72h3.17v2.48h-3.17V200.72z M184.7,204.55h3.17v10.92h-3.17V204.55z"/>
<path class="st2" d="M188.81,204.58h3.38c1.34,4.84,1.58,5.84,1.92,7.93c0.44-2.42,0.5-2.69,1.15-5.26l0.68-2.67h3.29l-3.53,10.9
	h-3.37L188.81,204.58z"/>
<path class="st2" d="M210.12,212.7c-0.37,0.59-0.81,1.14-1.32,1.63c-1.12,1.02-2.59,1.57-4.11,1.55c-3.23,0-5.51-2.07-5.51-5.64
	c0-2.63,1.29-6.01,5.59-6.01c0.65,0,2.52,0.06,3.92,1.56s1.5,3.65,1.54,4.88h-7.79c-0.02,1.35,0.75,2.7,2.48,2.7
	c1.73,0,2.36-1.15,2.75-1.92L210.12,212.7z M206.93,208.67c-0.06-0.45-0.15-1.06-0.61-1.54c-0.42-0.4-0.98-0.61-1.56-0.61
	c-0.62,0-1.21,0.26-1.63,0.71c-0.35,0.41-0.57,0.91-0.65,1.44L206.93,208.67z"/>
<path class="st2" d="M214.67,205.71c0.71-0.61,1.48-1.08,3.16-1.25v2.84l-1.06,0.17c-1.55,0.27-2.01,0.5-2.01,1.88v6.14h-3.22
	v-10.92h3.13V205.71z"/>
<path class="st2" d="M219.77,211.8c0.88,0.86,1.96,1.5,3.17,1.5c0.77,0,1.94-0.25,1.94-1.07c0-0.27-0.16-0.52-0.42-0.62
	c-0.48-0.25-1.23-0.31-1.86-0.42c-0.49-0.08-0.98-0.19-1.46-0.33c-0.68-0.16-1.3-0.48-1.82-0.94c-0.53-0.55-0.82-1.28-0.81-2.04
	c0-1.8,1.54-3.65,4.59-3.65c1.76-0.01,3.47,0.57,4.86,1.63l-1.98,1.84c-1.02-0.79-1.98-1.09-2.73-1.09c-1.25,0-1.54,0.5-1.54,0.81
	c0,0.63,0.68,0.75,1.73,0.94c2.19,0.39,4.73,0.98,4.73,3.57s-2.59,3.82-5.16,3.82c-3.03,0-4.59-1.46-5.28-2.11L219.77,211.8z"/>
<path class="st2" d="M229.18,200.72h3.18v2.48h-3.18V200.72z M229.18,204.55h3.18v10.92h-3.18V204.55z"/>
<path class="st2" d="M235.07,201.43h3.19v3.4h2.11v1.96h-2.13v4.91c-0.02,0.68-0.02,1.23,0.84,1.23l1.15-0.04v2.5
	c-0.56,0.1-1.12,0.16-1.69,0.17c-1.11,0-2.32-0.06-3.01-1.06c-0.44-0.65-0.45-1.42-0.45-2.46v-5.26h-1.58v-1.96h1.58L235.07,201.43z
	"/>
<path class="st2" d="M251.55,204.58l-3.83,11.77c-0.25,0.71-0.48,1.38-1.02,1.98c-0.75,0.81-1.48,0.85-2.31,0.87h-2.33v-2.55h1.13
	c0.52-0.02,1.34-0.02,1.34-0.79c-0.01-0.26-0.06-0.52-0.15-0.77l-3.25-10.52h3.42l1.8,7.81l1.8-7.81L251.55,204.58z"/>
<path class="st2" d="M32.77,180.22c3.08,0,4.81,1.5,4.81,4.21s-1.69,4.19-4.72,4.19h-2.08v3.06H28.6v-11.46H32.77z M32.84,186.66
	c1.69,0,2.63-0.79,2.63-2.23c0-1.44-0.98-2.25-2.7-2.25h-1.99v4.49H32.84z"/>
<path class="st2" d="M49.82,185.96c0,3.76-2.07,5.88-5.58,5.88s-5.56-2.12-5.56-5.88c0-3.81,2.06-5.93,5.56-5.93
	C47.73,180.03,49.82,182.15,49.82,185.96z M47.6,185.96c0-2.59-1.22-3.94-3.36-3.94c-2.14,0-3.36,1.35-3.36,3.94
	c0,2.55,1.22,3.89,3.36,3.89C46.38,189.85,47.6,188.52,47.6,185.96L47.6,185.96z"/>
<path class="st2" d="M60.9,191.68l-1.82-6.74c-0.09-0.41-0.19-0.94-0.28-1.52c-0.09,0.58-0.21,1.11-0.3,1.52l-1.82,6.74h-2.89
	l-3.19-11.46h2.37l2.05,7.83c0.12,0.5,0.21,1.01,0.26,1.52c0.09-0.51,0.21-1.05,0.3-1.52l2.03-7.83h2.38l2.03,7.83
	c0.09,0.47,0.21,1,0.28,1.5c0.07-0.5,0.15-1.03,0.26-1.5l2.06-7.83h2.37l-3.19,11.46H60.9z"/>
<path class="st2" d="M68.49,191.68v-11.46h7.98v2.01h-5.79v2.76h5.02v1.95h-5.02v2.74h5.95v1.99L68.49,191.68z"/>
<path class="st2" d="M88.24,191.68h-2.37l-2.7-3.47h-2.28v3.47h-2.18v-11.46h4.41c3.08,0,4.83,1.47,4.83,4.08
	c0,1.76-0.98,3.04-2.61,3.59l2.91,3.62L88.24,191.68z M83.14,186.34c1.65,0,2.59-0.75,2.59-2.05c0-1.35-0.94-2.1-2.59-2.12h-2.25
	v4.17H83.14z"/>
<path class="st2" d="M89.89,191.68v-11.46h7.98v2.01h-5.8v2.76h5.03v1.95h-5.03v2.74h5.95v1.99L89.89,191.68z"/>
<path class="st2" d="M103.84,180.22c4.06,0,6.33,2.12,6.33,5.67c0,3.63-2.31,5.79-6.33,5.79h-3.76v-11.46H103.84z M103.84,189.7
	c2.67,0,4.13-1.33,4.13-3.81c0-2.4-1.43-3.7-4.13-3.7h-1.58v7.51L103.84,189.7z"/>
<path class="st2" d="M120.48,180.22c2.89,0,4.34,1.07,4.34,3.17c0,1.15-0.66,1.92-1.8,2.27c1.71,0.39,2.55,1.41,2.55,2.8
	c0,2.14-1.63,3.21-4.92,3.21h-4.26v-11.46H120.48z M118.57,184.86h2.46c1.11,0,1.74-0.47,1.74-1.28c0-0.98-0.75-1.45-2.29-1.45
	h-1.92V184.86z M118.57,189.74h2.14c1.75,0,2.61-0.49,2.61-1.48c0-0.99-0.83-1.56-2.29-1.56h-2.46V189.74z"/>
<path class="st2" d="M131.86,191.68h-2.16v-3.7l-4.26-7.76h2.25l2.57,4.6c0.2,0.36,0.38,0.74,0.53,1.13
	c0.14-0.39,0.31-0.76,0.51-1.13l2.57-4.6h2.25l-4.26,7.76L131.86,191.68z"/>
<path class="st0" d="M180.14,86.39c-0.08-1.61-0.17-2.95-0.21-3.55C180.04,84.03,180.11,85.21,180.14,86.39z"/>
<path class="st0" d="M252.75,91.37h-72.43c-0.01-0.9-0.04-1.87-0.08-2.81c-0.03-0.71-0.06-1.41-0.09-2.06c0-0.03,0-0.07,0-0.11
	c-0.03-1.18-0.1-2.36-0.21-3.55c0-0.07,0-0.14-0.02-0.21s0-0.12,0-0.12c-2.74-30.71-26.14-65.3-73.69-65.3
	c-11.68-0.01-23.26,2.25-34.07,6.67c18.78-10.44,39.93-15.9,61.42-15.86c53.68,0,99.56,33.4,117.98,80.55L252.75,91.37z"/>
</svg>
